<svg width="2321" height="2320" xmlns="http://www.w3.org/2000/svg" xmlns:xlink="http://www.w3.org/1999/xlink" xml:space="preserve" overflow="hidden"><g transform="translate(-1040 -78)"><path d="M2130.73 1559.35C2201.89 1587.49 2266.87 1624.92 2325.36 1671.46 2383.84 1717.86 2433.81 1771.98 2475.43 1833.22 2560.31 1956.79 2606.02 2103.03 2606.63 2252.92L2606.63 2320.5 2471.25 2320.5 2471.25 2252.77C2471.84 2091.21 2407.45 1936.19 2292.56 1822.55 2236.73 1767.54 2171.08 1723.48 2099.01 1692.65 2024.11 1660.57 1943.48 1644 1861.99 1643.94 1700.35 1643.35 1545.26 1707.71 1431.57 1822.55 1376.55 1878.37 1332.48 1943.98 1301.61 2016.01 1269.74 2089.31 1253.65 2168.33 1252.88 2252.77L1252.88 2320.5 1117.5 2320.5 1117.5 2252.77C1117.11 2102.77 1162.91 1956.29 1248.7 1833.22 1334.15 1710 1454.13 1614.77 1593.56 1559.5 1561.88 1537.75 1533.04 1512.14 1507.69 1483.26 1482.65 1454.84 1460.99 1423.6 1443.18 1390.17 1425.43 1356.77 1411.91 1321.29 1402.95 1284.55 1393.81 1247.12 1388.88 1208.79 1388.25 1170.27 1388.25 1104.85 1400.63 1043.46 1425.38 986.396 1473.79 873.339 1563.87 783.243 1676.95 734.792 1794.81 684.643 1927.95 684.253 2046.1 733.71 2159.23 782.128 2249.38 872.229 2297.82 985.314 2337.88 1079.48 2346.4 1184.06 2322.11 1283.47 2312.82 1320.12 2299.21 1355.37 2280.95 1389.24 2262.81 1422.76 2241.19 1454.28 2216.44 1483.26 2191.68 1512.18 2163.06 1537.39 2130.73 1559.35ZM1861.99 1508.63C1908.56 1508.63 1952.34 1499.81 1993.18 1482.34 2074.17 1447.94 2138.62 1383.46 2172.96 1302.49 2191.37 1260.89 2200.5 1216.81 2200.5 1170.42 2200.9 1080.95 2165.01 995.141 2101.02 932.581 2069.69 902.047 2033.18 877.33 1993.18 859.589 1951.92 841.165 1907.18 831.78 1861.99 832.062 1815.57 832.062 1771.79 840.877 1730.94 858.352 1649.52 893.067 1584.66 957.893 1549.93 1039.28 1532.45 1080.11 1523.63 1123.87 1523.63 1170.42 1523.63 1216.81 1532.45 1260.58 1549.93 1301.4 1567.72 1342.23 1591.7 1378.26 1622.03 1409.19 1685.44 1473.24 1771.99 1509.08 1862.14 1508.63ZM3283.5 155.5 3283.5 1238 3012.75 1238 2606.63 1643.94 2606.63 1238 2471.25 1238 2471.25 1102.69 2742 1102.69 2742 1317.33 2956.74 1102.69 3148.12 1102.69 3148.12 290.812 1794.38 290.812 1794.38 533.911C1771.69 536.777 1749.09 540.335 1726.61 544.581 1703.57 548.955 1680.95 555.319 1659 563.602L1659 155.5 3283.5 155.5Z" stroke="#000000" stroke-width="154.688" stroke-linecap="round" stroke-linejoin="round" stroke-miterlimit="10" fill-rule="evenodd"/></g></svg>