<svg width="290" height="289" xmlns="http://www.w3.org/2000/svg" xmlns:xlink="http://www.w3.org/1999/xlink" xml:space="preserve" overflow="hidden"><g transform="translate(-2055 -1093)"><path d="M2055 1215.29C2055 1147.75 2109.75 1093 2177.29 1093L2222.71 1093C2290.25 1093 2345 1147.75 2345 1215.29L2345 1259.71C2345 1327.25 2290.25 1382 2222.71 1382L2177.29 1382C2109.75 1382 2055 1327.25 2055 1259.71Z" fill="#FFFFFF" fill-rule="evenodd"/><path d="M2117 1226.5C2117 1183.7 2151.47 1149 2194 1149 2236.53 1149 2271 1183.7 2271 1226.5 2271 1269.3 2236.53 1304 2194 1304 2151.47 1304 2117 1269.3 2117 1226.5Z" fill="#000000" fill-rule="evenodd" fill-opacity="0.211765"/><path d="M2186 1252C2186 1219.97 2211.74 1194 2243.5 1194 2275.26 1194 2301 1219.97 2301 1252 2301 1284.03 2275.26 1310 2243.5 1310 2211.74 1310 2186 1284.03 2186 1252Z" fill="#000000" fill-rule="evenodd" fill-opacity="0.211765"/><path d="M2166.38 1255.32C2187.16 1257.19 2202.5 1275.56 2200.62 1296.35 2198.75 1317.14 2180.38 1332.47 2159.59 1330.6 2138.81 1328.73 2123.47 1310.36 2125.35 1289.57 2127.22 1268.78 2145.59 1253.45 2166.38 1255.32Z" fill="#000000" fill-rule="evenodd" fill-opacity="0.211765"/></g></svg>