<svg width="576" height="499" xmlns="http://www.w3.org/2000/svg" xmlns:xlink="http://www.w3.org/1999/xlink" xml:space="preserve" overflow="hidden"><g transform="translate(-1957 -926)"><path d="M1975.5 991.519C1975.5 965.551 1996.55 944.5 2022.52 944.5L2467.48 944.5C2493.45 944.5 2514.5 965.551 2514.5 991.519L2514.5 1358.5C2514.5 1384.47 2493.45 1405.52 2467.48 1405.52L2022.52 1405.52C1996.55 1405.52 1975.5 1384.47 1975.5 1358.5Z" stroke="#855CD6" stroke-width="36.6667" stroke-miterlimit="8" fill="none" fill-rule="evenodd"/><path d="M2246.5 1017.86C2246.5 1007.72 2254.72 999.5 2264.86 999.5L2446.14 999.5C2456.28 999.5 2464.5 1007.72 2464.5 1017.86L2464.5 1161.14C2464.5 1171.28 2456.28 1179.5 2446.14 1179.5L2264.86 1179.5C2254.72 1179.5 2246.5 1171.28 2246.5 1161.14Z" stroke="#855CD6" stroke-width="36.6667" stroke-miterlimit="8" fill="none" fill-rule="evenodd"/><path d="M2246.5 1248.62C2246.5 1242.48 2251.48 1237.5 2257.62 1237.5L2453.38 1237.5C2459.52 1237.5 2464.5 1242.48 2464.5 1248.62L2464.5 1335.38C2464.5 1341.52 2459.52 1346.5 2453.38 1346.5L2257.62 1346.5C2251.48 1346.5 2246.5 1341.52 2246.5 1335.38Z" stroke="#855CD6" stroke-width="36.6667" stroke-miterlimit="8" fill="none" fill-rule="evenodd"/></g></svg>