<svg width="570" height="494" xmlns="http://www.w3.org/2000/svg" xmlns:xlink="http://www.w3.org/1999/xlink" xml:space="preserve" overflow="hidden"><g transform="translate(-1262 -932)"><path d="M1319 951.002 1547 951.002 1547 1406 1319 1406 1319 1406C1298.01 1406 1281 1389.03 1281 1368.08L1281 988.918 1281 988.918C1281 967.977 1298.01 951.002 1319 951.002Z" stroke="#855CD6" stroke-width="37.8125" stroke-linecap="round" stroke-linejoin="round" stroke-miterlimit="10" fill="none" fill-rule="evenodd"/><path d="M1547 951.002 1774.14 951.002 1774.14 951.002C1795.05 951.002 1812 967.972 1812 988.906L1812 1150 1547 1150 1547 951.002Z" stroke="#855CD6" stroke-width="37.8125" stroke-linecap="round" stroke-linejoin="round" stroke-miterlimit="10" fill="none" fill-rule="evenodd"/><path d="M1547 1141 1812 1141 1812 1368.14 1812 1368.14C1812 1389.05 1795.05 1406 1774.14 1406L1547 1406 1547 1141Z" stroke="#855CD6" stroke-width="37.8125" stroke-linecap="round" stroke-linejoin="round" stroke-miterlimit="10" fill="none" fill-rule="evenodd"/></g></svg>